# xmcd
#
# Track frame offsets: 
#        150
#        16432
#        29745
#        44067
#        60692
#        77025
#        94812
#        107562
#        120732
#        134130
#        149012
#        157147
#        171100
#        184550
#        195520
#        214992
#        229797
#        251312
#
# Disc length: 3492 seconds
#
# Revision: 0
# Processed by: cddbd v1.4PL0 Copyright (c) Steve Scherf et al.
# Submitted via: ExactAudioCopy v0.90b4
#
DISCID=0d0da212
DTITLE=Alex Burns and Nick Charles - The Road More Travelled
DYEAR=1900
DGENRE=Blues
TTITLE0=Key To The Highway
TTITLE1=How Long?
TTITLE2=Hitch Me To Your Buggy
TTITLE3=Letter To Tampa
TTITLE4=1990 Heritage Festival
TTITLE5=Just Can't Be Satisfied
TTITLE6=Shift Out
TTITLE7=Backstabber Blues
TTITLE8=32-20 Blues
TTITLE9=When Did You Leave Heaven?
TTITLE10=Rag
TTITLE11=The Rising Sun
TTITLE12=Port Of Call
TTITLE13=Creole Belle
TTITLE14=Kindhearted Woman
TTITLE15=Miss Kelly Sings The Blues
TTITLE16=Prodigal Son
TTITLE17='Davey' Street
EXTD=
EXTT0=
EXTT1=
EXTT2=
EXTT3=
EXTT4=
EXTT5=
EXTT6=
EXTT7=
EXTT8=
EXTT9=
EXTT10=
EXTT11=
EXTT12=
EXTT13=
EXTT14=
EXTT15=
EXTT16=
EXTT17=
PLAYORDER=
